<?xml version="1.0" standalone="no"?>
<!DOCTYPE svg PUBLIC "-//W3C//DTD SVG 20010904//EN"
 "http://www.w3.org/TR/2001/REC-SVG-20010904/DTD/svg10.dtd">
<svg version="1.0" xmlns="http://www.w3.org/2000/svg"
 width="184.000000pt" height="184.000000pt" viewBox="0 0 184.000000 184.000000"
 preserveAspectRatio="xMidYMid meet">
<metadata>
Created by potrace 1.11, written by Peter Selinger 2001-2013
</metadata>
<g transform="translate(0.000000,184.000000) scale(0.100000,-0.100000)"
fill="#000000" stroke="none">
<path d="M0 1829 c0 -5 5 -7 10 -4 5 3 10 8 10 11 0 2 -4 4 -10 4 -5 0 -10 -5
-10 -11z"/>
<path d="M1825 1830 c3 -5 8 -10 11 -10 2 0 4 5 4 10 0 6 -5 10 -11 10 -5 0
-7 -4 -4 -10z"/>
<path d="M541 1739 c-96 -19 -166 -72 -202 -153 -21 -46 -24 -71 -29 -251 -3
-110 -11 -211 -17 -225 -23 -53 -83 -80 -180 -80 l-53 0 0 -64 0 -63 66 -6
c40 -4 81 -15 106 -29 69 -39 72 -52 78 -328 5 -230 7 -248 29 -298 31 -68 98
-128 165 -147 28 -7 88 -17 134 -20 l82 -7 0 71 0 71 -62 0 c-83 0 -137 26
-169 83 -23 40 -24 51 -29 282 -6 266 -11 289 -71 339 -19 16 -47 33 -62 39
l-29 10 39 17 c45 21 87 63 104 105 8 18 15 105 18 220 5 167 8 194 27 225 28
49 91 81 170 88 l64 5 0 63 0 64 -67 -1 c-38 -1 -88 -5 -112 -10z"/>
<path d="M1120 1688 l0 -65 64 -5 c79 -7 142 -39 170 -88 19 -31 22 -58 27
-225 3 -115 10 -202 18 -220 17 -42 59 -85 105 -105 l38 -18 -34 -11 c-40 -13
-91 -63 -109 -106 -8 -20 -15 -113 -18 -270 -6 -230 -7 -242 -30 -282 -32 -57
-86 -83 -169 -83 l-62 0 0 -71 0 -71 83 7 c45 3 105 13 133 20 67 19 134 79
165 147 22 50 24 68 29 298 6 276 9 289 78 328 25 14 66 25 106 29 l66 6 0 63
0 64 -51 0 c-69 0 -134 18 -157 43 -35 39 -42 84 -42 257 0 226 -23 299 -115
361 -55 38 -96 49 -202 56 l-93 6 0 -65z"/>
<path d="M866 1340 c-2 -3 2 -67 7 -143 5 -76 6 -141 4 -144 -3 -2 -56 30
-119 71 -62 42 -117 76 -123 76 -5 0 -23 -22 -38 -50 l-28 -49 23 -15 c13 -8
71 -38 131 -67 59 -30 107 -56 107 -59 0 -4 -58 -35 -130 -70 -71 -34 -130
-65 -130 -68 0 -18 57 -101 67 -97 7 2 65 38 129 80 l116 75 -7 -127 c-3 -71
-8 -138 -11 -150 -4 -22 -2 -23 67 -23 l71 0 -6 28 c-2 15 -8 82 -11 150 l-7
123 123 -82 c136 -92 126 -91 170 -7 l19 37 -130 62 c-72 34 -130 65 -130 69
0 3 59 35 130 69 72 35 130 65 130 67 0 2 -14 29 -31 59 -20 36 -35 52 -43 47
-6 -4 -60 -40 -118 -79 -59 -40 -110 -73 -113 -73 -4 0 -3 55 1 123 3 67 7
133 8 145 1 22 -3 24 -62 25 -35 1 -65 0 -66 -3z"/>
<path d="M0 10 c0 -5 5 -10 11 -10 5 0 7 5 4 10 -3 6 -8 10 -11 10 -2 0 -4 -4
-4 -10z"/>
<path d="M1825 10 c-3 -5 -1 -10 4 -10 6 0 11 5 11 10 0 6 -2 10 -4 10 -3 0
-8 -4 -11 -10z"/>
</g>
</svg>
